<svg xmlns="http://www.w3.org/2000/svg" xmlns:xlink="http://www.w3.org/1999/xlink" version="1.1" id="Layer_1" x="0px" y="0px" viewBox="0 0 60 60" style="enable-background:new 0 0 60 60;" xml:space="preserve" class="category-icon">
	<circle cx="6.1" cy="24.1" r="1.2">
	</circle>
	<path d="M12,25.3h41.9c0.7,0,1.2-0.5,1.2-1.2c0-0.7-0.5-1.2-1.2-1.2H12c-0.7,0-1.2,0.5-1.2,1.2C10.8,24.8,11.3,25.3,12,25.3z">
	</path>
	<circle cx="6.1" cy="35.7" r="1.2">
	</circle>
	<path d="M12,36.9h41.9c0.7,0,1.2-0.5,1.2-1.2s-0.5-1.2-1.2-1.2H12c-0.7,0-1.2,0.5-1.2,1.2S11.3,36.9,12,36.9z">
	</path>
	<circle cx="6.1" cy="47.2" r="1.2">
	</circle>
	<path d="M12,48.4h41.9c0.7,0,1.2-0.5,1.2-1.2S54.6,46,53.9,46H12c-0.7,0-1.2,0.5-1.2,1.2S11.3,48.4,12,48.4z">
	</path>
	<circle cx="6.1" cy="58.8" r="1.2">
	</circle>
	<path d="M12,60h41.9c0.7,0,1.2-0.5,1.2-1.2s-0.5-1.2-1.2-1.2H12c-0.7,0-1.2,0.5-1.2,1.2S11.3,60,12,60z">
	</path>
</svg>
