<svg xmlns="http://www.w3.org/2000/svg" data-name="Layer 1" viewBox="0 0 30 30" class="category-icon">
	<title>
		UL_CATEGORY_ICONS
	</title>
	<path d="M17 22a.47.47 0 0 0-.5.5v2a.5.5 0 0 0 1 0v-2a.47.47 0 0 0-.5-.5zm-9.5-3.7l-.9-3.9A.49.49 0 0 0 6 14a.55.55 0 0 0-.4.6l.9 3.9a.55.55 0 0 0 .6.4.51.51 0 0 0 .4-.6zm2-.2l-1.6-3.6a.54.54 0 0 0-1 .4l1.6 3.7a.43.43 0 0 0 .7.2.55.55 0 0 0 .3-.7zm0-8L7.9 6.5a.54.54 0 0 0-1 .4l1.6 3.7a.43.43 0 0 0 .7.2.55.55 0 0 0 .3-.7zm-2 8.2l-.9-3.9A.49.49 0 0 0 6 14a.55.55 0 0 0-.4.6l.9 3.9a.55.55 0 0 0 .6.4.51.51 0 0 0 .4-.6zm2-.2l-1.6-3.6a.54.54 0 0 0-1 .4l1.6 3.7a.43.43 0 0 0 .7.2.55.55 0 0 0 .3-.7zM17 22a.47.47 0 0 0-.5.5v2a.5.5 0 0 0 1 0v-2a.47.47 0 0 0-.5-.5zm0 0a.47.47 0 0 0-.5.5v2a.5.5 0 0 0 1 0v-2a.47.47 0 0 0-.5-.5zm-7.5-3.9l-1.6-3.6a.54.54 0 0 0-1 .4l1.6 3.7a.43.43 0 0 0 .7.2.55.55 0 0 0 .3-.7zm-2 .2l-.9-3.9A.49.49 0 0 0 6 14a.55.55 0 0 0-.4.6l.9 3.9a.55.55 0 0 0 .6.4.51.51 0 0 0 .4-.6zm0 0l-.9-3.9A.49.49 0 0 0 6 14a.55.55 0 0 0-.4.6l.9 3.9a.55.55 0 0 0 .6.4.51.51 0 0 0 .4-.6zm2-.2l-1.6-3.6a.54.54 0 0 0-1 .4l1.6 3.7a.43.43 0 0 0 .7.2.55.55 0 0 0 .3-.7zm0-8L7.9 6.5a.54.54 0 0 0-1 .4l1.6 3.7a.43.43 0 0 0 .7.2.55.55 0 0 0 .3-.7zM17 22a.47.47 0 0 0-.5.5v2a.5.5 0 0 0 1 0v-2a.47.47 0 0 0-.5-.5zm0 0a.47.47 0 0 0-.5.5v2a.5.5 0 0 0 1 0v-2a.47.47 0 0 0-.5-.5zM9.5 10.1L7.9 6.5a.54.54 0 0 0-1 .4l1.6 3.7a.43.43 0 0 0 .7.2.55.55 0 0 0 .3-.7zm0 8l-1.6-3.6a.54.54 0 0 0-1 .4l1.6 3.7a.43.43 0 0 0 .7.2.55.55 0 0 0 .3-.7zm-2 .2l-.9-3.9A.49.49 0 0 0 6 14a.55.55 0 0 0-.4.6l.9 3.9a.55.55 0 0 0 .6.4.51.51 0 0 0 .4-.6zm0 0l-.9-3.9A.49.49 0 0 0 6 14a.55.55 0 0 0-.4.6l.9 3.9a.55.55 0 0 0 .6.4.51.51 0 0 0 .4-.6zm2-.2l-1.6-3.6a.54.54 0 0 0-1 .4l1.6 3.7a.43.43 0 0 0 .7.2.55.55 0 0 0 .3-.7zm0-8L7.9 6.5a.54.54 0 0 0-1 .4l1.6 3.7a.43.43 0 0 0 .7.2.55.55 0 0 0 .3-.7zM17 22a.47.47 0 0 0-.5.5v2a.5.5 0 0 0 1 0v-2a.47.47 0 0 0-.5-.5zm-9.5-3.7l-.9-3.9A.49.49 0 0 0 6 14a.55.55 0 0 0-.4.6l.9 3.9a.55.55 0 0 0 .6.4.51.51 0 0 0 .4-.6zm2-.2l-1.6-3.6a.54.54 0 0 0-1 .4l1.6 3.7a.43.43 0 0 0 .7.2.55.55 0 0 0 .3-.7zm0-8L7.9 6.5a.54.54 0 0 0-1 .4l1.6 3.7a.43.43 0 0 0 .7.2.55.55 0 0 0 .3-.7zM17 22a.47.47 0 0 0-.5.5v2a.5.5 0 0 0 1 0v-2a.47.47 0 0 0-.5-.5zm0 0a.47.47 0 0 0-.5.5v2a.5.5 0 0 0 1 0v-2a.47.47 0 0 0-.5-.5zM9.5 10.1L7.9 6.5a.54.54 0 0 0-1 .4l1.6 3.7a.43.43 0 0 0 .7.2.55.55 0 0 0 .3-.7zm0 8l-1.6-3.6a.54.54 0 0 0-1 .4l1.6 3.7a.43.43 0 0 0 .7.2.55.55 0 0 0 .3-.7zm-2 .2l-.9-3.9A.49.49 0 0 0 6 14a.55.55 0 0 0-.4.6l.9 3.9a.55.55 0 0 0 .6.4.51.51 0 0 0 .4-.6zm0 0l-.9-3.9A.49.49 0 0 0 6 14a.55.55 0 0 0-.4.6l.9 3.9a.55.55 0 0 0 .6.4.51.51 0 0 0 .4-.6zm2-.2l-1.6-3.6a.54.54 0 0 0-1 .4l1.6 3.7a.43.43 0 0 0 .7.2.55.55 0 0 0 .3-.7zm0-8L7.9 6.5a.54.54 0 0 0-1 .4l1.6 3.7a.43.43 0 0 0 .7.2.55.55 0 0 0 .3-.7zM17 22a.47.47 0 0 0-.5.5v2a.5.5 0 0 0 1 0v-2a.47.47 0 0 0-.5-.5zm0 0a.47.47 0 0 0-.5.5v2a.5.5 0 0 0 1 0v-2a.47.47 0 0 0-.5-.5zM9.5 10.1L7.9 6.5a.54.54 0 0 0-1 .4l1.6 3.7a.43.43 0 0 0 .7.2.55.55 0 0 0 .3-.7zm0 8l-1.6-3.6a.54.54 0 0 0-1 .4l1.6 3.7a.43.43 0 0 0 .7.2.55.55 0 0 0 .3-.7zm-2 .2l-.9-3.9A.49.49 0 0 0 6 14a.55.55 0 0 0-.4.6l.9 3.9a.55.55 0 0 0 .6.4.51.51 0 0 0 .4-.6zM17 22a.47.47 0 0 0-.5.5v2a.5.5 0 0 0 1 0v-2a.47.47 0 0 0-.5-.5zm0 0a.47.47 0 0 0-.5.5v2a.5.5 0 0 0 1 0v-2a.47.47 0 0 0-.5-.5zm0 0a.47.47 0 0 0-.5.5v2a.5.5 0 0 0 1 0v-2a.47.47 0 0 0-.5-.5zm-9.5-3.7l-.9-3.9A.49.49 0 0 0 6 14a.55.55 0 0 0-.4.6l.9 3.9a.55.55 0 0 0 .6.4.51.51 0 0 0 .4-.6zm2-.2l-1.6-3.6a.54.54 0 0 0-1 .4l1.6 3.7a.43.43 0 0 0 .7.2.55.55 0 0 0 .3-.7zm0-8L7.9 6.5a.54.54 0 0 0-1 .4l1.6 3.7a.43.43 0 0 0 .7.2.55.55 0 0 0 .3-.7z">
	</path>
	<path d="M24.5 3h-19a1 1 0 0 0-1 1v23a1 1 0 0 0 1 1h1v1.5a.5.5 0 0 0 1 0V28h15v1.5a.5.5 0 0 0 1 0V28h1a1 1 0 0 0 1-1V4a1.08 1.08 0 0 0-1-1zm-10 24h-9v-7h9v7zm0-8h-9v-7h9v7zm0-8h-9V4h9v7zm10 16h-9v-7h9v7zm0-8h-9v-7h9v7zm0-8h-9V4h9v7z">
	</path>
	<path d="M7.2 10.9a.47.47 0 0 1-.6-.4l-.9-3.9a.47.47 0 0 1 .4-.6.47.47 0 0 1 .6.4l.9 3.9a.82.82 0 0 1-.4.6zM24.3 7l-1.6 3.7a.43.43 0 0 1-.7.2.55.55 0 0 1-.3-.7l1.6-3.7a.43.43 0 0 1 .7-.2.52.52 0 0 1 .3.7z">
	</path>
	<path d="M22.9 7.5l-2.4 3.2a.5.5 0 1 1-.8-.6l2.4-3.2a.49.49 0 0 1 .7-.1.56.56 0 0 1 .1.7zM24.2 14.8l-1.6 3.7a.36.36 0 0 1-.6.2.61.61 0 0 1-.3-.7l1.6-3.7a.52.52 0 0 1 .7-.3.88.88 0 0 1 .2.8zM22.2 14.7l-.9 3.9a.51.51 0 0 1-1-.2l.9-3.9a.55.55 0 0 1 .6-.4.49.49 0 0 1 .4.6zM11.4 18.7a.49.49 0 0 1-.7-.1l-2.2-3.3a.62.62 0 0 1 .1-.7.49.49 0 0 1 .7.1l2.2 3.3a.47.47 0 0 1-.1.7zM13.5 22.5v2a.5.5 0 0 1-1 0v-2a.5.5 0 0 1 1 0z">
	</path>
</svg>
