<svg xmlns="http://www.w3.org/2000/svg" data-name="Layer 1" viewBox="0 0 30 30" class="category-icon">
	<title>
		UL_CATEGORY_ICONS
	</title>
	<path d="M30 10.5v19a.5.5 0 0 1-1 0V21h-3v-1h3v-9.5a.5.5 0 0 1 1 0zM4 20v1H1v8.5a.47.47 0 0 1-.5.5.47.47 0 0 1-.5-.5v-19a.47.47 0 0 1 .5-.5.47.47 0 0 1 .5.5V20h3z">
	</path>
	<path d="M26.5 15h-23a.47.47 0 0 0-.5.5v2a.47.47 0 0 0 .5.5H5v11.5a.47.47 0 0 0 .5.5.47.47 0 0 0 .5-.5V21h1v8.5a.5.5 0 0 0 1 0V20H6v-2h18v2h-2v9.5a.5.5 0 0 0 1 0V21h1v8.5a.5.5 0 0 0 1 0V18h1.5a.47.47 0 0 0 .5-.5v-2a.47.47 0 0 0-.5-.5zm-.5 2H4v-1h22v1z">
	</path>
</svg>
