<svg xmlns="http://www.w3.org/2000/svg" width="24" height="24" viewBox="0 0 24 24" class="email-icon">
  <path fill-rule="evenodd" d="M6.54 6.8C5.7 6.8 5.02 6.15 5 5.32c-.02-.83.63-1.5 1.46-1.54.83-.03 1.52.62 1.54 1.45v.04c0 .8-.65 1.47-1.46 1.5zm0-4C5.16 2.76 4.02 3.86 4 5.24c-.02 1.4 1.08 2.53 2.46 2.56C7.84 7.8 8.98 6.7 9 5.32V5.3c0-1.37-1.1-2.5-2.46-2.5zM23 21h-1.4c-.3-1.35-1.6-2.22-2.96-1.95-.98.2-1.75.97-1.95 1.95h-1.43v-8.55h2.3c3.07.1 5.5 2.66 5.42 5.74V21zm-2.42.68c-.02.1-.04.22-.08.32-.2.6-.77 1-1.4 1-.64 0-1.2-.4-1.42-1-.04-.1-.07-.2-.08-.3v-.2c0-.17.03-.34.1-.5.26-.78 1.1-1.2 1.88-.93.44.15.78.5.93.93.08.16.1.33.1.5.05.07.04.13.04.18h-.05zM14.24 21H7c-.26-1.35-1.57-2.23-2.92-1.97-1 .2-1.78.97-1.97 1.97H1v-9.88h2.8l.13.18.23.3c.62.78 1.3 1.53 2 2.23.04.05.1.08.16.1.1.05.25.05.36 0 .06-.02.12-.05.17-.1.72-.7 1.4-1.44 2-2.23.1-.1.18-.2.26-.33l.14-.15h5V21zM6 21.5c.03.17.03.34 0 .5-.22.6-.78 1-1.4 1-.64 0-1.2-.4-1.4-1-.1-.17-.17-.35-.2-.55.02-.16.06-.3.14-.45.2-.6.77-1 1.4-1 .66-.02 1.25.4 1.46 1 .05.15.08.3.1.45l-.1.05zM2.2 6.13c-.32-1.2-.06-2.46.7-3.43C3.77 1.6 5.12.95 6.53 1c1.43-.04 2.8.6 3.66 1.74.73.96 1 2.22.7 3.4-.54 1.52-1.3 2.94-2.3 4.2l-.14.16-.13.17-.23.33c-.48.63-1 1.23-1.57 1.8-.35-.37-1-1-1.6-1.8l-.2-.28c-.07-.07-.13-.14-.18-.22l-.1-.16c-1-1.25-1.77-2.68-2.25-4.2zm15.37 5.32H15.3v-.83c0-.27-.23-.5-.5-.5H10c.8-1.13 1.44-2.38 1.87-3.7.4-1.5.07-3.07-.87-4.28C9.94.76 8.28-.04 6.53 0 4.8-.05 3.16.73 2.1 2.1 1.16 3.33.84 4.92 1.23 6.4c.42 1.34 1.04 2.6 1.84 3.72H.5c-.28 0-.5.23-.5.5V21.5c0 .28.22.5.5.5h1.6c.27 1.36 1.6 2.23 2.95 1.96C6.03 23.76 6.8 23 7 22h9.7c.27 1.36 1.58 2.23 2.94 1.96.98-.2 1.75-.97 1.95-1.96h1.9c.27 0 .5-.22.5-.5v-3.3c.07-3.64-2.8-6.65-6.44-6.75zm-2.3 1V21v-8.55z"></path>
</svg>