<svg xmlns="http://www.w3.org/2000/svg" data-name="Layer 1" viewBox="0 0 30 30" class="category-icon">
	<title>
		UL_CATEGORY_ICONS
	</title>
	<path d="M28 24h-.5v-2a2 2 0 0 0-2-2h-20v-5a2 2 0 0 0-4 0v12.5a.47.47 0 0 0 .5.5h1.5v1.5a.47.47 0 0 0 .5.5h2a.47.47 0 0 0 .5-.5V28h17v1.5a.47.47 0 0 0 .5.5h2a.47.47 0 0 0 .5-.5V28H28a.47.47 0 0 0 .5-.5v-3a.47.47 0 0 0-.5-.5zM5.5 21h20a1 1 0 0 1 1 1v2h-21v-3zm-3-6a1.08 1.08 0 0 1 1-1 1 1 0 0 1 1 1v9h-2v-9zm3 14h-1v-1h1v1zm20 0h-1v-1h1v1zm2-2h-25v-2h25v2z">
	</path>
</svg>
