<svg xmlns="http://www.w3.org/2000/svg" data-name="Layer 1" viewBox="0 0 30 30" class="category-icon">
	<title>
		UL_CATEGORY_ICONS
	</title>
	<path d="M25.5 2a1 1 0 0 0-1-1h-19a1 1 0 0 0-1 1v27a1 1 0 0 0 1 1h19a1 1 0 0 0 1-1V2zm-11 27h-9V8h9v21zm0-22h-9V2h9v5zm10 22h-9V8h9v21zm0-22h-9V2h9v5z">
	</path>
	<path d="M17.5 16.5v2a.5.5 0 0 1-1 0v-2a.5.5 0 0 1 1 0zM13.5 16.5v2a.5.5 0 0 1-1 0v-2a.5.5 0 0 1 1 0zM17.5 4.5v1a.5.5 0 0 1-1 0v-1a.5.5 0 1 1 1 0zM13.5 4.5v1a.5.5 0 0 1-1 0v-1a.5.5 0 1 1 1 0z">
	</path>
</svg>
