<svg xmlns="http://www.w3.org/2000/svg" width="24" height="24" viewBox="0 0 24 24">
	<path fill-rule="evenodd" d="M4.93 8.55c0-1.4 1.1-2.53 2.44-2.53.27 0 .5-.22.5-.5 0-.27-.23-.5-.5-.5-1.9 0-3.42 1.6-3.42 3.53 0 .28.22.5.5.5.26 0 .48-.22.48-.5zm8.25-3.57zM7.38 4c-1.18 0-2.28.47-3.1 1.33-1.72 1.78-1.72 4.67 0 6.45l7.72 8 7.73-8c1.7-1.78 1.7-4.67 0-6.45C18.9 4.47 17.8 4 16.63 4c-1.17 0-2.26.47-3.1 1.33-.5.5-.84 1.1-1.06 1.8-.07.2-.25.34-.47.34-.2 0-.4-.14-.47-.34-.22-.7-.58-1.3-1.07-1.8C9.64 4.47 8.54 4 7.36 4zM12 21c-.13 0-.26-.05-.35-.15l-8.08-8.37c-2.1-2.17-2.1-5.7 0-7.85C4.57 3.58 5.93 3 7.37 3c1.43 0 2.78.58 3.8 1.63.32.34.6.7.83 1.1.23-.4.5-.76.83-1.1C13.85 3.58 15.2 3 16.63 3c1.44 0 2.8.58 3.8 1.63 2.1 2.16 2.1 5.68 0 7.85l-8.08 8.37c-.1.1-.22.15-.35.15z">
	</path>
</svg>
