<svg xmlns="http://www.w3.org/2000/svg" data-name="Layer 1" viewBox="0 0 30 30" class="category-icon">
	<title>
		UL_CATEGORY_ICONS
	</title>
	<path d="M24.73 23.1h-2.2v-1.6a1.5 1.5 0 0 0-1.6-1.5h-8.3l-4-5.9a3.8 3.8 0 0 0-5.2-1 .76.76 0 0 0-.2.4.37.37 0 0 0 .1.3l6.9 10.1V27a1.52 1.52 0 0 0 1.4 1.5v1a.47.47 0 0 0 .5.5h1.5a.47.47 0 0 0 .5-.5v-1h4.2v1a.47.47 0 0 0 .5.5h1.5a.47.47 0 0 0 .5-.5v-1h.1a1.51 1.51 0 0 0 1.5-1.3h3.7a.65.65 0 0 0 .6-.6v-1.5a1.91 1.91 0 0 0-2-2zM11 20.2a1.43 1.43 0 0 0-.7 1v1.11l-6-8.71a3.09 3.09 0 0 1 3.6 1l3.7 5.4a2 2 0 0 0-.6.2zm2.2 8.8h-.6v-.5h.64v.5zm6.7 0h-.59v-.5h.62v.5zm1.6-1.8a.55.55 0 0 1-.5.3h-9.2a.65.65 0 0 1-.6-.6v-4h10.3V27m.1-5H11.34v-.5a.51.51 0 0 1 .6-.5h9.2a.56.56 0 0 1 .6.5v.5h-.1zm4.3 4.2h-3.41V24h2.35a1.11 1.11 0 0 1 1.1 1.1v1.1z">
	</path>
</svg>
