<svg xmlns="http://www.w3.org/2000/svg" data-name="Layer 1" viewBox="0 0 30 30" class="category-icon">
	<title>
		UL_CATEGORY_ICONS
	</title>
	<path d="M20.3 22.5a.52.52 0 0 0 .2-.4v-.3a2.75 2.75 0 0 0-1.2-2.2v-7.1a1.32 1.32 0 0 0-1.3-1.3h-6.2a1.26 1.26 0 0 0-1.3 1.3v7.1a2.51 2.51 0 0 0-1.2 2.2v.3a.52.52 0 0 0 .2.4l-.8 7.1a.35.35 0 0 0 .4.4h.8a.66.66 0 0 0 .5-.4l1.7-7.1h5.8l1.7 7.1a.54.54 0 0 0 .5.4h.8a.35.35 0 0 0 .4-.4zm-.12 6.7l-1.49-6.7h.9l.94 6.7h-.35zm-9-16.7a.47.47 0 0 1 .5-.5h6.2a.47.47 0 0 1 .5.5v6.8a1.31 1.31 0 0 0-.5-.1H11.7a.9.9 0 0 0-.5.1v-6.8zM9.75 29.2H9.5l.89-6.7h.9zm.15-7.5a1.77 1.77 0 0 1 1.8-1.7h6.2a1.84 1.84 0 0 1 1.8 1.7H9.9z">
	</path>
</svg>
