<svg xmlns="http://www.w3.org/2000/svg" data-name="Layer 1" viewBox="0 0 30 30" class="category-icon"><title>UL_CATEGORY_ICONS</title><path d="M28.5 17h-27a1 1 0 0 0-1 1v9a1 1 0 0 0 1 1h1v1.5a.47.47 0 0 0 .5.5h2a.47.47 0 0 0 .5-.5V28h19v1.5a.47.47 0 0 0 .5.5h2a.47.47 0 0 0 .5-.5V28h1a1 1 0 0 0 1-1v-9a1.08 1.08 0 0 0-1-1zm-24 12h-1v-1h1v1zm10-2h-13v-9h13v9zm12 2h-1v-1h1v1zm2-2h-13v-9h13v9z"></path><path d="M17.5 21.5v2a.5.5 0 0 1-1 0v-2a.5.5 0 0 1 1 0zM13.5 21.5v2a.5.5 0 0 1-1 0v-2a.5.5 0 0 1 1 0z"></path></svg>