<svg xmlns="http://www.w3.org/2000/svg" data-name="Layer 1" viewBox="0 0 30 30" class="category-icon">
	<title>
		UL_CATEGORY_ICONS
	</title>
	<path d="M27.5 19.4H27v-1a4 4 0 0 0-4-4H7a4 4 0 0 0-4 4v1h-.5A2.48 2.48 0 0 0 0 21.9v4a2.48 2.48 0 0 0 2.5 2.5h.2v1.1a.47.47 0 0 0 .5.5H5a.47.47 0 0 0 .5-.5v-1.1h19.2v1.1a.47.47 0 0 0 .5.5H27a.47.47 0 0 0 .5-.5v-1.1h.1a2.48 2.48 0 0 0 2.5-2.5v-4a2.63 2.63 0 0 0-2.6-2.5zM4 18.4a3 3 0 0 1 3-3h16a3 3 0 0 1 3 3v1.5a2.61 2.61 0 0 0-1 2v1.5H5v-1.5a2.61 2.61 0 0 0-1-2v-1.5zM4.4 29h-.8v-.6h.8v.6zm22 0h-.8v-.6h.8v.6zm2.6-3.1a1.54 1.54 0 0 1-1.5 1.5h-25A1.54 1.54 0 0 1 1 25.9v-4a1.54 1.54 0 0 1 1.5-1.5A1.54 1.54 0 0 1 4 21.9v2a.47.47 0 0 0 .5.5h21a.47.47 0 0 0 .5-.5v-2a1.5 1.5 0 0 1 3 0v4z">
	</path>
	<circle cx="8.6" cy="19.2" r=".4">
	</circle>
	<circle cx="15" cy="19.2" r=".4">
	</circle>
	<circle cx="21.4" cy="19.2" r=".4">
	</circle>
</svg>
