<svg xmlns="http://www.w3.org/2000/svg" data-name="Layer 1" viewBox="0 0 30 30" class="category-icon">
	<title>
		UL_CATEGORY_ICONS
	</title>
	<path d="M16 25h-2a.5.5 0 0 0 0 1h2a.5.5 0 0 0 0-1zm0 0h-2a.5.5 0 0 0 0 1h2a.5.5 0 0 0 0-1zm0 0h-2a.5.5 0 0 0 0 1h2a.5.5 0 0 0 0-1zm0 0h-2a.5.5 0 0 0 0 1h2a.5.5 0 0 0 0-1zm0 0h-2a.5.5 0 0 0 0 1h2a.5.5 0 0 0 0-1zm0 0h-2a.5.5 0 0 0 0 1h2a.5.5 0 0 0 0-1zm0 0h-2a.5.5 0 0 0 0 1h2a.5.5 0 0 0 0-1zm8.5-19h-19a1 1 0 0 0-1 1v20a1 1 0 0 0 1 1h1v1.5a.47.47 0 0 0 .5.5h2a.47.47 0 0 0 .5-.5V28h11v1.5a.47.47 0 0 0 .5.5h2a.47.47 0 0 0 .5-.5V28h1a1 1 0 0 0 1-1V7a1.08 1.08 0 0 0-1-1zm-16 23h-1v-1h1v1zm14 0h-1v-1h1v1zm2-2h-19v-8h19v8zm0-9h-19v-5h19v5zm0-6h-19V7h19v5zM14 26h2a.5.5 0 0 0 0-1h-2a.5.5 0 0 0 0 1zm2-1h-2a.5.5 0 0 0 0 1h2a.5.5 0 0 0 0-1zm0 0h-2a.5.5 0 0 0 0 1h2a.5.5 0 0 0 0-1zm0 0h-2a.5.5 0 0 0 0 1h2a.5.5 0 0 0 0-1zm0 0h-2a.5.5 0 0 0 0 1h2a.5.5 0 0 0 0-1zm0 0h-2a.5.5 0 0 0 0 1h2a.5.5 0 0 0 0-1z">
	</path>
	<path d="M16.5 10.5a.47.47 0 0 1-.5.5h-2a.5.5 0 0 1 0-1h2a.47.47 0 0 1 .5.5zM16.5 16.5a.47.47 0 0 1-.5.5h-2a.5.5 0 0 1 0-1h2a.47.47 0 0 1 .5.5z">
	</path>
</svg>
