<svg xmlns="http://www.w3.org/2000/svg" data-name="Layer 1" viewBox="0 0 30 30" class="category-icon">
	<title>
		UL_CATEGORY_ICONS
	</title>
	<path d="M29 12H1a.47.47 0 0 0-.5.5v2a.47.47 0 0 0 .5.5h1.5v14.5a.47.47 0 0 0 .5.5.47.47 0 0 0 .5-.5V19h11v8h12v2.5a.5.5 0 0 0 1 0V15H29a.47.47 0 0 0 .5-.5v-2a.47.47 0 0 0-.5-.5zm-2.5 14h-11v-7h11v7zm0-8h-23v-3h23v3zm2-4h-27v-1h27v1z">
	</path>
	<path d="M16.5 16.5a.47.47 0 0 1-.5.5h-2a.5.5 0 0 1 0-1h2a.47.47 0 0 1 .5.5zM22.5 22.5a.47.47 0 0 1-.5.5h-2a.5.5 0 0 1 0-1h2a.47.47 0 0 1 .5.5z">
	</path>
</svg>
