<svg xmlns="http://www.w3.org/2000/svg" width="75" height="37" viewBox="0 0 213 107"  class="logo-text">
  <g fill="#2F4858">
    <path d="M20.28 46.3C8.68 46.3 0 39.6 0 24.68V.93h9.1V24.4c0 9.5 4.12 14.2 11.32 14.2s11.3-4.7 11.3-14.2V.9h8.76v23.7c0 14.9-8.6 21.6-20.2 21.6v.1zm37.46-18.6v17.35h-8.52v-31.8h7.8l.37 5.8c1.8-3.66 6.4-6.68 11.8-6.68v8.3c-5.8-1.35-11.5 1.6-11.5 7.03zM93.9 45.93c-4.5 0-9.2-2.06-11.83-5.95l-.3 5.07h-7.7V.93h8.5v16.7c2.8-3.38 6.96-5.3 11.33-5.23 8.58 0 14.9 7.2 14.9 16.77 0 9.55-6.3 16.76-14.9 16.76zm-2.65-27.2c-5 0-9.03 3.9-9.03 10.44 0 6.55 4.04 10.45 9.03 10.45 5 0 9.03-3.9 9.03-10.45 0-6.55-4.04-10.44-9.03-10.44zm49.3 26.32l-.3-5.07c-2.65 3.9-7.35 5.95-11.83 5.95-8.58 0-14.9-7.2-14.9-16.76 0-9.56 6.3-16.77 14.9-16.77 4.48 0 9.18 2.06 11.83 5.96l.3-5.08h7.7v31.77h-7.7zm-9.48-26.32c-5 0-9.04 3.9-9.04 10.44 0 6.55 4.04 10.45 9.04 10.45 5 0 9.03-3.9 9.03-10.45 0-6.55-4.03-10.44-9.03-10.44zm48.56 26.32V27.48c0-6.18-2.14-8.24-6.02-8.24-4 0-8.4 3.68-8.4 8.1v17.72h-8.5v-31.8h7.8l.4 5.88c2.2-4.05 6.9-6.77 11.8-6.77 8.5 0 11.6 5.9 11.6 13.75v18.9h-8.5v.03h-.13zm-179.4 61V61.93h8.95v37.13h19.77v7H.23zm58.62 0l-.3-5.07c-2.63 3.9-7.33 5.95-11.82 5.95-8.58 0-14.9-7.2-14.9-16.76 0-9.56 6.3-16.77 14.9-16.77 4.5 0 9.2 2.06 11.83 5.96l.3-5.08h7.72v31.77h-7.72zm-9.47-26.32c-5 0-9.04 3.9-9.04 10.44 0 6.55 4.04 10.45 9.04 10.45 5 0 9.03-3.9 9.03-10.45 0-6.55-4-10.44-9-10.44zm50.76 26.32l-.3-5.07c-2.64 3.9-7.34 5.95-11.82 5.95-8.58 0-14.9-7.2-14.9-16.76 0-9.56 6.3-16.77 14.9-16.77 4.37-.07 8.53 1.85 11.3 5.22v-16.7h8.54v44.13h-7.72zm-9.5-26.32c-5 0-9.04 3.9-9.04 10.44 0 6.55 4.04 10.45 9.04 10.45 5 0 9.03-3.9 9.03-10.45 0-6.55-4.03-10.44-9.03-10.44zm50.78 26.32l-.3-5.07c-2.64 3.9-7.34 5.95-11.83 5.95-8.6 0-15-7.2-15-16.76 0-9.56 6.3-16.77 14.9-16.77 4.4-.07 8.5 1.85 11.3 5.22v-16.7h8.5v44.13h-7.7.1zm-9.48-26.32c-5 0-9.04 3.9-9.04 10.44 0 6.55 4.04 10.45 9.04 10.45 5 0 9.03-3.9 9.03-10.45 0-6.55-4.02-10.44-9.02-10.44zm53.43 10.67H164.2c-.2 4.84 2.3 10.34 10.83 10.34 3.75-.1 7.37-1.4 10.3-3.75v6.1c-3.02 2.3-7.65 3.7-12.94 3.7-9.8 0-16.7-7.2-16.7-17 0-10.2 7.8-16.6 16-16.6 8.1 0 14.1 5 14.1 12.5 0 1.5-.2 3-.6 4.42l.13.24zM172 78.83c-3.58 0-6.7 2.06-7.42 7h13.6c.72-3.84-1.77-7-6.18-7zm29.53 9.87v17.35H193v-31.8h7.78l.37 5.8c1.83-3.66 6.43-6.68 11.83-6.68v8.3c-5.76-1.35-11.45 1.6-11.45 7.03z">
    </path>
  </g>
</svg>