<svg xmlns="http://www.w3.org/2000/svg" width="24" height="24" viewBox="0 0 24 24">
  <path fill-rule="evenodd" d="M3.07 21c.17-1.35.958-4.98 4.325-6.41.07.06.14.11.22.16.03.03.06.06.1.08.11.09.23.17.35.24.1.06.21.13.32.18.238.15.498.27.758.38.12.05.25.1.38.15.79.28 1.628.43 2.487.43.63 0 1.26-.08 1.858-.24.11-.02.23-.06.34-.1.13-.03.26-.08.39-.13.18-.06.36-.14.53-.22.17-.08.33-.16.488-.26.13-.06.25-.14.37-.22.07-.04.13-.08.19-.12.12-.08.24-.17.35-.26.03-.02.05-.04.08-.06 3.566 1.5 4.235 5.07 4.365 6.4H3.07zM5.735 9.11C5.735 5.74 8.553 3 12.01 3s6.274 2.74 6.274 6.11c0 1.18-.35 2.33-1.02 3.32-.25.38-.53.72-.858 1.03l-.22.19c-1.15 1-2.628 1.56-4.176 1.56-1.558 0-3.047-.56-4.196-1.57-.41-.35-.77-.76-1.07-1.21-.658-.99-1.008-2.14-1.008-3.32zm11.66 4.76c.258-.27.488-.57.698-.88.78-1.16 1.19-2.5 1.19-3.88 0-3.92-3.268-7.11-7.274-7.11-4.017 0-7.274 3.19-7.274 7.11 0 1.38.41 2.72 1.18 3.88.21.31.44.6.688.87-4.365 2.13-4.575 7.39-4.585 7.62L2 22h20v-.5c0-.06-.05-5.42-4.605-7.63z"></path>
</svg>